<?xml version="1.0" encoding="UTF-8" standalone="no"?>
<!-- Created with Inkscape (http://www.inkscape.org/) -->

<svg
   xmlns:dc="http://purl.org/dc/elements/1.1/"
   xmlns:cc="http://creativecommons.org/ns#"
   xmlns:rdf="http://www.w3.org/1999/02/22-rdf-syntax-ns#"
   xmlns:svg="http://www.w3.org/2000/svg"
   xmlns="http://www.w3.org/2000/svg"
   xmlns:sodipodi="http://sodipodi.sourceforge.net/DTD/sodipodi-0.dtd"
   xmlns:inkscape="http://www.inkscape.org/namespaces/inkscape"
   version="1.1"
   id="svg2"
   width="327.04001"
   height="199.67999"
   viewBox="0 0 327.04001 199.67999"
   sodipodi:docname="banner-flag.svg"
   inkscape:version="0.92.4 (5da689c313, 2019-01-14)">
  <metadata
     id="metadata8">
    <rdf:RDF>
      <cc:Work
         rdf:about="">
        <dc:format>image/svg+xml</dc:format>
        <dc:type
           rdf:resource="http://purl.org/dc/dcmitype/StillImage" />
        <dc:title></dc:title>
      </cc:Work>
    </rdf:RDF>
  </metadata>
  <defs
     id="defs6" />
  <sodipodi:namedview
     pagecolor="#ffffff"
     bordercolor="#666666"
     borderopacity="1"
     objecttolerance="10"
     gridtolerance="10"
     guidetolerance="10"
     inkscape:pageopacity="0"
     inkscape:pageshadow="2"
     inkscape:window-width="2560"
     inkscape:window-height="1016"
     id="namedview4"
     showgrid="false"
     inkscape:zoom="3.009701"
     inkscape:cx="183.15829"
     inkscape:cy="84.639145"
     inkscape:window-x="0"
     inkscape:window-y="27"
     inkscape:window-maximized="1"
     inkscape:current-layer="svg2" />
  <path
     style="fill:#ea1d3c;stroke-width:0.31999999;fill-opacity:1"
     d="m 5.0997702,196.2753 c 0,-0.11674 3.0240001,-6.75121 6.7199998,-14.74328 3.696,-7.99206 6.720001,-14.74503 6.720001,-15.0066 0,-0.26157 -0.55865,-1.51279 -1.241444,-2.7805 -4.704189,-8.73403 -12.2333389,-23.33681 -12.1007536,-23.4694 0.088123,-0.0881 4.9261666,-0.75107 10.7512106,-1.47321 l 10.590987,-1.31299 v -5.21857 c 0,-5.15197 0.0092,-5.22057 0.72,-5.37564 0.396,-0.0864 30.312001,-4.05605 66.480002,-8.82146 36.167997,-4.76541 94.056007,-12.40153 128.640007,-16.96916 34.584,-4.567626 63.744,-8.379536 64.8,-8.470906 1.056,-0.0914 5.19981,-0.60145 9.20847,-1.13351 4.00866,-0.53206 7.42866,-0.88074 7.6,-0.77484 0.17134,0.10589 0.31153,0.13228 0.31153,0.0586 0,-0.0736 -2.268,-1.29704 -5.04,-2.71865 -11.17189,-5.72947 -11.79525,-6.08638 -10.94637,-6.2675 1.64774,-0.35155 35.22608,-3.78468 35.39219,-3.61858 0.096,0.096 -3.03099,6.32893 -6.94894,13.85087 -3.91795,7.52194 -7.12282,13.832346 -7.12194,14.023116 9.6e-4,0.19078 3.19289,6.48934 7.09334,13.99682 3.90045,7.50747 7.09172,13.78437 7.09172,13.94867 0,0.16429 -3.708,0.68893 -8.24,1.16585 -4.532,0.47693 -8.924,0.95058 -9.76,1.05256 l -1.52,0.18541 v 5.05335 5.05335 l -0.88,0.17878 c -0.484,0.0983 -38.608,5.1564 -84.72,11.24014 -46.112,6.08375 -104.48289,13.78893 -129.713079,17.12263 -25.230193,3.33369 -46.758194,6.13926 -47.840002,6.2346 -1.980272,0.17453 -13.908673,1.70743 -14.379975,1.84795 -0.139175,0.0415 2.991906,1.94549 6.957959,4.2311 3.966055,2.28561 7.211923,4.25099 7.213047,4.36752 0.0029,0.28898 -0.30256,0.33161 -17.917959,2.50139 -8.536001,1.05143 -16.0600007,1.98878 -16.7200007,2.083 -0.66,0.0942 -1.2000001,0.0758 -1.2000001,-0.041 z M 61.383657,158.71508 c 7.906077,-0.90464 7.189369,-0.59376 6.930992,-3.00645 l -0.216461,-2.02127 1.940794,-0.21957 c 1.871453,-0.21173 1.94079,-0.25232 1.94079,-1.13596 0,-1.2522 -1.267155,-11.89217 -1.451878,-12.19106 -0.0816,-0.13203 -1.00065,-0.16278 -2.042327,-0.0683 l -1.893955,0.17174 -0.209808,-1.56209 c -0.115395,-0.85916 -0.272106,-1.75661 -0.34825,-1.99434 -0.15238,-0.47576 -0.925744,-0.4282 -8.773782,0.53954 l -4.32,0.5327 0.105158,2.11829 0.105155,2.11829 -1.784787,0.14801 c -0.981632,0.0814 -1.884432,0.24765 -2.006221,0.36944 -0.204499,0.2045 1.071664,12.57067 1.342487,13.00887 0.06627,0.10724 0.956985,0.10056 1.979353,-0.0148 2.108723,-0.23801 2.326656,-0.0825 2.333955,1.66575 0.005,1.19924 0.259178,2.18617 0.563021,2.18617 0.09331,0 2.705901,-0.29021 5.805764,-0.64491 z m -1.60025,-4.94038 c -0.150205,-0.0608 -1.391552,-11.44268 -1.256819,-11.5238 0.09525,-0.0573 0.819977,-0.15526 1.610505,-0.21759 l 1.437322,-0.11332 0.535808,4.48 c 0.294694,2.464 0.581405,5.056 0.637136,5.76 l 0.101328,1.28 -1.514458,0.17471 c -0.83295,0.0961 -1.530822,0.16809 -1.550822,0.16 z m 24.82346,2.20004 c 2.295098,-0.27789 4.262512,-0.60189 4.372032,-0.72 0.109523,-0.11811 -0.0042,-1.86011 -0.252602,-3.87112 -0.248454,-2.01101 -0.388176,-3.822 -0.310496,-4.02443 0.08157,-0.21257 1.665121,-0.53333 3.748516,-0.75929 1.984003,-0.21519 3.745302,-0.47655 3.913992,-0.5808 0.29297,-0.18107 0.10163,-4.48561 -0.2134,-4.80063 -0.0802,-0.0802 -1.92104,0.071 -4.090851,0.33581 -2.169812,0.26485 -3.982557,0.44411 -4.028321,0.39834 -0.04577,-0.0458 -0.174387,-0.74843 -0.28583,-1.56147 -0.236931,-1.72862 -0.53783,-1.58752 4.639936,-2.17577 l 3.320066,-0.3772 -0.158978,-2.22201 c -0.08744,-1.2221 -0.285472,-2.34552 -0.44007,-2.49649 -0.156717,-0.15304 -3.750045,0.13887 -8.121088,0.65972 -4.312001,0.51382 -8.092001,0.93565 -8.400001,0.9374 -0.776457,0.004 -0.748195,0.59522 0.56,11.70586 0.616,5.23176 1.12,9.63492 1.12,9.78481 0,0.34623 -0.264464,0.35954 4.627095,-0.23273 z m 52.898053,-6.20693 c 2.86283,-0.33903 5.34212,-0.70106 5.50952,-0.80452 0.1674,-0.10346 0.23709,-0.61453 0.15485,-1.1357 -0.49974,-3.16719 -0.66993,-2.81314 1.46858,-3.05509 1.05392,-0.11924 1.98257,-0.32415 2.06366,-0.45535 0.15701,-0.25404 -0.77417,-8.38929 -0.98487,-8.60435 -0.21851,-0.22305 -8.50776,0.84903 -8.76664,1.13382 -0.13667,0.15035 -0.046,1.91245 0.20155,3.91578 0.24753,2.00332 0.38025,3.71221 0.29494,3.79753 -0.0853,0.0853 -0.7911,0.2268 -1.56841,0.31441 -1.39491,0.15723 -1.41573,0.1453 -1.60187,-0.91752 -0.36595,-2.08958 -1.21773,-10.26222 -1.08355,-10.3964 0.0748,-0.0748 2.64047,-0.42541 5.70153,-0.77918 3.06106,-0.35376 5.76514,-0.71326 6.00907,-0.79888 0.34917,-0.12256 0.39666,-0.61374 0.22327,-2.30902 -0.12114,-1.18434 -0.33166,-2.26509 -0.46783,-2.40166 -0.23113,-0.23183 -16.46372,1.51752 -16.96685,1.82848 -0.12648,0.0782 -0.14023,0.95741 -0.0306,1.95386 0.2206,2.00418 0.27819,1.94243 -2.01735,2.16321 -0.8447,0.0812 -1.61731,0.2292 -1.71691,0.32881 -0.17045,0.17045 0.99113,11.01853 1.35448,12.64962 0.16178,0.72626 0.247,0.74724 2.1896,0.53921 l 2.02126,-0.21646 0.2148,1.89857 c 0.11814,1.04422 0.29466,1.97843 0.39226,2.07604 0.0976,0.0976 0.63261,0.11305 1.18889,0.0343 0.55629,-0.0787 3.35374,-0.42052 6.21657,-0.75954 z m 22.26542,-2.60304 c 2.08481,-0.21546 3.85071,-0.54847 3.92421,-0.74002 0.17557,-0.45751 -2.24419,-20.90083 -2.50474,-21.16139 -0.20257,-0.20257 -8.57894,0.71887 -8.83158,0.97151 -0.14692,0.14692 2.11796,20.10664 2.38956,21.0585 0.10069,0.35289 0.36901,0.51372 0.69779,0.41825 0.29381,-0.0853 2.23995,-0.33139 4.32476,-0.54685 z m 24.74812,-2.87173 c 1.96827,-0.21391 3.72247,-0.47779 3.89822,-0.58641 0.32164,-0.19879 -0.0309,-4.36727 -0.40058,-4.73698 -0.0987,-0.0987 -1.98321,0.0294 -4.18787,0.28471 -2.20465,0.25527 -4.00845,0.42379 -4.00845,0.37451 0,-0.70342 -1.97163,-16.26717 -2.07367,-16.36921 -0.12813,-0.12813 -4.57752,0.32691 -7.60633,0.7779 -1.08157,0.16105 -1.2,0.27383 -1.2,1.14269 0,1.17606 2.23526,20.1532 2.4064,20.43011 0.0671,0.10854 2.25308,-0.0559 4.85778,-0.36552 2.6047,-0.30958 6.34622,-0.73789 8.3145,-0.9518 z m 20.32808,-2.37066 c 3.74728,-0.43868 7.297,-0.88016 7.88826,-0.98107 l 1.07502,-0.18346 -0.21463,-2.00417 -0.21463,-2.00418 1.85961,-0.29475 1.85961,-0.29476 -0.0735,-2.20686 c -0.0404,-1.21378 -0.15788,-2.29122 -0.26097,-2.39431 -0.10309,-0.1031 -1.03388,-0.1455 -2.06842,-0.0942 l -1.88098,0.0932 -0.17174,-1.05891 c -0.0945,-0.58241 -0.21059,-1.41892 -0.25805,-1.85892 -0.0806,-0.74725 -0.20234,-0.79936 -1.8463,-0.79039 -0.968,0.005 -2.86028,0.12872 -4.20505,0.27432 l -2.44505,0.26472 -0.13857,-1.55433 c -0.0762,-0.85487 -0.12795,-1.57699 -0.11495,-1.60471 0.013,-0.0277 2.68516,-0.3615 5.93816,-0.74174 5.76562,-0.67393 6.592,-0.92203 6.2421,-1.87404 -0.0862,-0.23439 -0.15664,-0.96287 -0.15664,-1.61884 0,-2.38289 0.18331,-2.35597 -8.8,-1.2924 -4.4,0.52093 -8.19638,1.01872 -8.43638,1.1062 -0.33579,0.12238 -0.38456,0.57391 -0.21154,1.95865 0.25621,2.05064 0.043,2.33685 -1.75208,2.35256 -1.82793,0.016 -2.03874,0.31081 -1.83433,2.56515 0.0992,1.09388 0.30049,2.09974 0.44734,2.23524 0.14684,0.1355 1.05899,0.13694 2.02699,0.003 0.968,-0.13373 1.80483,-0.20442 1.85964,-0.15706 0.0548,0.0473 0.18285,0.89225 0.28454,1.87756 0.10169,0.98531 0.34485,1.91697 0.54036,2.07036 0.20493,0.16079 1.84604,0.0939 3.87546,-0.15795 1.936,-0.24026 3.68467,-0.37517 3.88594,-0.29979 0.20126,0.0754 0.41877,0.80137 0.48335,1.61332 0.13854,1.74196 0.65884,1.54067 -5.80929,2.2474 -7.06076,0.77148 -6.4615,0.49909 -6.2276,2.83078 0.10879,1.08448 0.25398,2.15179 0.32266,2.37179 0.16962,0.54342 0.70741,0.51836 8.5317,-0.39761 z m 31.45324,-3.69059 c 2.992,-0.35419 5.63322,-0.71379 5.86937,-0.79912 0.31357,-0.11329 0.39988,-0.6942 0.32,-2.15391 l -0.10937,-1.99877 1.67214,-0.16814 c 0.91968,-0.0925 1.8075,-0.30848 1.97293,-0.48 0.18824,-0.19516 0.0161,-2.64687 -0.45996,-6.55186 -0.41841,-3.432 -0.76623,-6.29571 -0.77293,-6.36381 -0.007,-0.0681 -0.93161,-0.05 -2.05535,0.0402 l -2.04317,0.164 -0.21162,-1.87044 c -0.11639,-1.02875 -0.32523,-1.94067 -0.46409,-2.02649 -0.38788,-0.23972 -12.3056,1.15905 -12.74437,1.4958 -0.21525,0.1652 -0.32156,0.70945 -0.24,1.22865 0.48768,3.10456 0.67736,2.75495 -1.62872,3.00191 -2.44995,0.26236 -2.3117,-0.54419 -1.31819,7.69018 l 0.69497,5.76 2.11451,-0.10945 2.11452,-0.10945 0.22055,1.94945 c 0.26185,2.31439 -0.42368,2.1882 7.06878,1.30125 z m -2.54295,-5.8397 c -0.48153,-2.94096 -1.16743,-9.93137 -1.01377,-10.33181 0.22857,-0.59564 3.07369,-0.65127 3.08305,-0.0603 0.003,0.22 0.28897,2.76651 0.63442,5.65891 0.34545,2.89241 0.5946,5.28412 0.55367,5.31492 -0.0409,0.0308 -0.75256,0.14474 -1.58141,0.25319 -1.50119,0.19641 -1.50763,0.19321 -1.67596,-0.83492 z m 25.38226,3.1497 c 2.00162,-0.24883 3.7653,-0.57841 3.91929,-0.7324 0.15997,-0.15997 0.0704,-1.97242 -0.20885,-4.22847 -0.26886,-2.17168 -0.44855,-3.98235 -0.39929,-4.02371 0.0492,-0.0414 0.75435,-0.17161 1.56689,-0.28943 1.46257,-0.21207 1.47939,-0.20406 1.68,0.799 0.11146,0.55727 0.20485,1.39121 0.20755,1.85321 0.008,1.44557 0.30282,1.60942 2.43907,1.35753 l 1.9581,-0.23087 0.19971,1.91075 c 0.10984,1.05091 0.26574,1.97678 0.34645,2.05749 0.22713,0.22714 8.56239,-0.83292 8.80987,-1.12042 0.22115,-0.25691 -2.12119,-20.88423 -2.40359,-21.16663 -0.20161,-0.20161 -8.30179,0.60554 -8.71132,0.86805 -0.20901,0.13398 -0.17331,1.35845 0.10392,3.5641 0.66655,5.30303 0.72443,5.03926 -1.13434,5.16912 l -1.58723,0.11088 -0.19597,-1.76 c -0.29811,-2.67737 -0.219,-2.59734 -2.46455,-2.49308 l -2.00502,0.0931 -0.16704,-1.66036 c -0.0919,-0.9132 -0.27135,-1.76469 -0.39885,-1.89219 -0.39967,-0.39967 -8.59723,0.57257 -8.77697,1.04096 -0.15135,0.39441 2.01751,19.97789 2.30709,20.83159 0.16966,0.50018 0.45002,0.49686 4.91508,-0.0582 z M 5.0997702,122.69965 c 0,-0.13013 3.0240001,-6.77556 6.7199998,-14.76762 3.696,-7.992066 6.720001,-14.727196 6.720001,-14.966966 0,-0.23976 -0.558608,-1.49098 -1.241352,-2.7805 -7.3153247,-13.81663 -12.2293502,-23.38053 -12.08653,-23.52335 0.095996,-0.096 4.93404,-0.75758 10.75121,-1.47017 l 10.576672,-1.29563 v -5.22161 c 0,-5.155051 0.0092,-5.223618 0.72,-5.378965 0.396,-0.08654 31.896001,-4.264797 69.999998,-9.285011 38.104001,-5.020214 95.984121,-12.655539 128.622491,-16.967389 32.63836,-4.311849 60.21436,-7.917012 61.28,-8.011473 1.06563,-0.09446 5.21827,-0.604635 9.22807,-1.13372 4.00981,-0.529085 7.45206,-0.862161 7.64945,-0.740167 0.21858,0.135096 0.26962,0.07738 0.13056,-0.147637 -0.12558,-0.203194 -0.34589,-0.369443 -0.48957,-0.369443 -0.14368,0 -3.8344,-1.862424 -8.20161,-4.13872 -6.32833,-3.2984844 -7.78192,-4.1727354 -7.15988,-4.3062684 1.59695,-0.342816 35.22796,-3.774225 35.39119,-3.611001 0.0933,0.09336 -3.03586,6.3240634 -6.95381,13.8460034 -3.91795,7.521941 -7.12251,13.832347 -7.12125,14.023121 0.001,0.190775 3.19327,6.493891 7.09333,14.006924 3.90007,7.51303 7.09104,13.789936 7.09104,13.948666 0,0.15874 -3.708,0.67883 -8.24,1.15575 -4.532,0.47693 -8.924,0.95058 -9.76,1.05256 l -1.52,0.18541 v 5.05335 5.05335 l -0.88,0.17971 c -0.484,0.0988 -23.272,3.13077 -50.64,6.73762 -27.368,3.60684 -85.75214,11.31281 -129.74253,17.12436 -43.990399,5.811546 -80.8544,10.643256 -81.920007,10.737136 -1.990541,0.17535 -13.888225,1.70713 -14.361708,1.849 -0.145329,0.0436 2.98623,1.94755 6.95902,4.2311 3.972791,2.28356 7.223696,4.24727 7.224237,4.3638 0.0013,0.29067 -0.358742,0.34104 -17.919021,2.50646 -8.536001,1.05261 -16.0600007,2.00025 -16.7200007,2.10588 -0.66,0.10562 -1.2000001,0.0856 -1.2000001,-0.0446 z M 50.999532,82.879994 c -0.01114,-0.44 -0.130596,-1.772 -0.265472,-2.96 l -0.245229,-2.16 h 1.12 1.12 l 0.211197,2.16 c 0.351126,3.59118 0.131216,3.38353 3.312454,3.12776 1.52201,-0.12237 2.922682,-0.39017 3.112605,-0.59512 0.247942,-0.26756 0.157709,-1.95174 -0.32,-5.97264 l -0.665315,-5.6 -1.52,-0.0975 c -1.503159,-0.0965 -1.52,-0.10986 -1.52,-1.21004 0,-0.69275 -0.180762,-1.18187 -0.479079,-1.29635 -0.442,-0.16961 -5.608928,0.30179 -8.117747,0.74062 -1.05601,0.18471 -1.073853,0.2147 -0.923139,1.55183 l 0.153683,1.36347 -1.236858,0.19779 c -1.009881,0.16148 -1.236281,0.32921 -1.233702,0.914 0.005,1.12866 1.228281,10.77876 1.402016,11.05987 0.08589,0.13896 1.496857,0.10049 3.135491,-0.0855 2.882973,-0.32723 2.978679,-0.36404 2.959095,-1.13816 z m -1.040036,-9.68 c 0.08817,-0.91447 0.225805,-1.0521 1.140276,-1.14027 0.99752,-0.0962 1.04,-0.0537 1.04,1.04 0,1.0937 -0.04658,1.14027 -1.140276,1.14027 -1.093699,0 -1.136179,-0.0425 -1.04,-1.04 z m 20.211691,8.19421 0.911411,-0.17886 -0.223248,-2.82067 -0.223248,-2.82067 1.871837,-0.21322 c 1.029507,-0.11726 2.11222,-0.27943 2.406025,-0.36037 0.637968,-0.17575 0.780845,0.2476 1.065194,3.15622 0.115958,1.18614 0.337542,2.23494 0.492406,2.33065 0.287626,0.17776 5.785415,-0.41783 6.019722,-0.65214 0.205146,-0.20514 -1.53327,-14.34527 -1.795405,-14.60367 -0.225104,-0.2219 -4.872874,0.21288 -5.796157,0.54221 -0.321021,0.11451 -0.385849,0.49588 -0.239683,1.40997 0.230627,1.44226 0.22145,1.44787 -2.920269,1.78474 -1.867833,0.20027 -2,0.17145 -2,-0.43614 0,-0.35783 -0.130077,-0.99272 -0.289059,-1.41087 l -0.289056,-0.76028 -2.990944,0.34007 -2.990941,0.34008 0.05375,0.95937 c 0.09146,1.63258 1.420035,13.09391 1.571408,13.55621 0.111418,0.34029 0.619552,0.39036 2.298938,0.22654 1.18575,-0.11567 2.566045,-0.2908 3.067322,-0.38917 z m 21.413034,-2.52771 c 1.190448,-0.1221 2.23296,-0.33286 2.316697,-0.46835 0.08374,-0.13549 0.0098,-1.37003 -0.164348,-2.74342 -0.339972,-2.68142 -0.215312,-3 1.177734,-3.00983 0.622325,-0.004 0.718215,0.21967 0.922325,2.1551 0.38335,3.63503 0.25505,3.52016 3.55093,3.17917 1.557721,-0.16116 2.928061,-0.3844 3.045211,-0.49609 0.11714,-0.11169 -0.0992,-2.79508 -0.48071,-5.96308 l -0.69369,-5.76 -1.439301,-0.0227 c -1.42621,-0.0225 -1.44021,-0.0335 -1.53968,-1.21786 -0.0552,-0.65736 -0.28536,-1.26618 -0.51145,-1.35294 -0.47,-0.18036 -8.43792,0.75228 -8.907731,1.04264 -0.170746,0.10553 -0.220848,0.74486 -0.111808,1.42674 l 0.197568,1.23554 -1.283098,0.20517 c -0.887142,0.14186 -1.282489,0.36537 -1.281129,0.72428 0.0045,1.19489 1.270579,10.96815 1.460681,11.27575 0.113946,0.18436 0.515463,0.26246 0.892259,0.17354 0.3768,-0.0889 1.659095,-0.26158 2.84954,-0.38369 z m 1.36783,-9.98989 c -0.358704,-0.93477 -0.153577,-1.60697 0.547722,-1.79491 1.317945,-0.3532 1.52,-0.23596 1.52,0.88198 0,0.95633 -0.111376,1.10003 -0.947722,1.22278 -0.620413,0.0911 -1.007222,-0.016 -1.12,-0.30985 z m 20.575509,7.44376 c 6.60473,-0.78176 6.133,-0.61432 6.12731,-2.17487 -0.007,-2.0446 -0.15697,-2.14431 -2.72052,-1.81419 -3.42772,0.4414 -3.35458,0.45867 -3.35458,-0.79199 0,-1.04091 0.0652,-1.10608 1.2,-1.2 l 1.2,-0.0993 v -1.52052 -1.52051 l 1.21005,6.4e-4 c 0.77449,3.2e-4 1.27558,-0.17027 1.39211,-0.47396 0.19253,-0.50171 -0.40511,-5.59514 -0.68992,-5.87996 -0.20363,-0.20363 -11.20959,0.94851 -11.64778,1.21932 -0.18581,0.11484 -0.21938,0.83557 -0.0831,1.7839 l 0.22868,1.59121 1.75497,-0.14182 c 3.87874,-0.31344 3.98408,-0.29127 4.09526,0.86182 0.0929,0.96322 0.0298,1.04 -0.85383,1.04 -1.6842,0 -1.89923,0.21887 -1.72589,1.75671 l 0.1578,1.39999 -1.23918,0.10165 -1.23918,0.10153 0.0756,2.71773 c 0.0416,1.49475 0.14506,2.89875 0.22996,3.12 0.19807,0.51616 0.95153,0.50626 5.88224,-0.0774 z m 16.45221,-1.97829 c 0.69344,-0.10626 1.2,-0.36365 1.2,-0.60974 0,-1.27286 -1.66585,-14.08533 -1.85538,-14.27017 -0.26887,-0.26223 -5.55278,0.35541 -5.92359,0.69242 -0.14244,0.12945 0.13495,3.51135 0.61642,7.51534 l 0.8754,7.27997 1.94358,-0.21197 c 1.06897,-0.11659 2.48357,-0.29472 3.14357,-0.39585 z m 9.54912,-1.0954 c 1.47999,-0.19432 2.80113,-0.45577 2.93587,-0.58098 0.13475,-0.12522 0.0891,-1.34857 -0.10146,-2.71855 -0.19055,-1.36999 -0.2823,-2.55504 -0.20389,-2.63345 0.0784,-0.0784 0.55606,-0.17206 1.06146,-0.20813 0.84636,-0.0604 0.93153,0.0355 1.0789,1.21443 l 0.16,1.28 1.47634,-0.0914 1.47633,-0.0914 0.17676,1.31787 c 0.0972,0.72482 0.22487,1.36544 0.28367,1.42359 0.0588,0.0582 1.4749,-0.0664 3.1469,-0.27675 2.3126,-0.29096 3.03295,-0.49486 3.01053,-0.85216 -0.14461,-2.30457 -1.57827,-13.82333 -1.75636,-14.11147 -0.17351,-0.280747 -0.90764,-0.284327 -2.997,-0.0146 -1.52197,0.19646 -2.87526,0.42399 -3.00733,0.50561 -0.13206,0.0816 -0.10446,1.3131 0.0613,2.73662 0.16579,1.42353 0.2446,2.64307 0.17513,2.71009 -0.0695,0.067 -0.55831,0.17185 -1.08631,0.23297 -0.90396,0.10463 -0.96934,0.0364 -1.12,-1.16888 l -0.16,-1.28 h -1.44 c -1.41279,0 -1.44194,-0.0212 -1.54281,-1.12 -0.0565,-0.616 -0.214,-1.23426 -0.34991,-1.37391 -0.13589,-0.13964 -1.56563,-0.0848 -3.17718,0.12187 -2.65436,0.34041 -2.92995,0.43958 -2.92849,1.0539 9.6e-4,0.37298 0.35843,3.63014 0.79453,7.23814 0.4361,3.608 0.79537,6.668 0.79839,6.8 0.007,0.30728 0.0401,0.30612 3.23459,-0.11332 z m 27.30921,-3.18618 c 4.68294,-0.54791 4.44587,-0.43451 4.26488,-2.04027 l -0.1564,-1.3876 1.26303,-0.16941 c 0.69466,-0.0932 1.34287,-0.24926 1.44047,-0.34686 0.23973,-0.23973 -0.47912,-5.7 -0.78654,-5.97444 -0.13407,-0.11969 -1.53976,-0.0551 -3.12376,0.14358 -3.26331,0.40927 -2.96068,-0.0437 -2.69534,4.0345 l 0.13534,2.08 -1.00187,0.0974 -1.00187,0.0974 -0.37793,-3.29743 c -0.20785,-1.81358 -0.40502,-3.58543 -0.43813,-3.93743 -0.0553,-0.58801 0.27772,-0.67992 4.0998,-1.13147 l 4.16,-0.49149 -0.0833,-1.565117 c -0.0458,-0.860819 -0.15841,-1.640262 -0.25025,-1.732102 -0.22549,-0.225488 -11.06298,0.94183 -11.65646,1.255529 -0.32314,0.1708 -0.44047,0.657146 -0.37554,1.55654 0.0898,1.2436 0.0498,1.30836 -0.81001,1.31301 -1.66,0.009 -1.68359,0.1102 -1.13608,4.8751 l 0.50558,4.4 h 1.38301 c 1.35408,0 1.38301,0.0223 1.38301,1.06667 0,0.58667 0.096,1.16267 0.21334,1.28 0.30076,0.30077 1.6938,0.26593 5.04499,-0.12617 z m 37.14168,-4.43227 4.16,-0.50823 0.0975,-1.52 c 0.0965,-1.50316 0.10986,-1.52 1.21004,-1.52 0.69168,0 1.1819,-0.18083 1.29596,-0.47804 0.16336,-0.42573 -0.57879,-7.884606 -1.06283,-10.681733 l -0.18685,-1.079779 -2.11693,0.208685 c -1.16431,0.114778 -2.59117,0.293875 -3.1708,0.397994 -1.03973,0.186768 -1.05112,0.20767 -0.84881,1.556774 l 0.20506,1.367469 -1.71119,0.211251 c -0.94115,0.116189 -2.10718,0.287072 -2.59118,0.379744 -0.81687,0.1564 -0.88036,0.09205 -0.8849,-0.896934 -0.009,-1.89105 -0.20749,-1.982426 -3.39106,-1.558772 -1.55902,0.207466 -2.90238,0.445015 -2.98525,0.527888 -0.16037,0.160359 0.87712,10.448543 1.15172,11.421083 0.13741,0.48665 0.38103,0.54287 1.57601,0.36367 1.4071,-0.21101 1.41348,-0.20758 1.41348,0.7582 0,0.53358 0.0842,1.1897 0.18721,1.45803 0.20375,0.53097 -0.20544,0.55275 7.65279,-0.4073 z m 19.70912,-2.27925 c 5.26334,-0.64749 4.86702,-0.47241 4.63108,-2.04583 l -0.20626,-1.37538 1.31946,-0.17698 c 0.7257,-0.0973 1.38282,-0.24034 1.46027,-0.31779 0.17097,-0.17097 -0.83471,-8.646881 -1.0528,-8.872997 -0.0849,-0.088 -0.75429,-0.16 -1.4876,-0.16 -1.30968,0 -1.33503,-0.02122 -1.43259,-1.199999 -0.095,-1.147508 -0.15002,-1.2 -1.25833,-1.2 -1.1886,0 -6.37879,0.559516 -7.70037,0.830121 -0.67933,0.139098 -0.72097,0.264771 -0.52366,1.580496 0.21127,1.408893 0.20121,1.429453 -0.70199,1.434282 -1.76055,0.0094 -1.79655,0.140416 -1.25228,4.556047 0.27277,2.21291 0.49595,4.17998 0.49595,4.37126 0,0.19887 0.61662,0.34779 1.44,0.34779 1.41866,0 1.44,0.0158 1.44,1.06667 0,0.58667 0.096,1.16267 0.21333,1.28 0.29734,0.29734 1.48903,0.26695 4.61579,-0.11769 z m -1.31168,-3.58898 c -0.001,-0.044 -0.2174,-1.80252 -0.48,-3.907834 -0.2626,-2.105311 -0.47744,-3.869311 -0.47744,-3.919999 0,-0.05069 0.504,-0.09216 1.12,-0.09216 0.67452,0 1.12607,0.159101 1.13528,0.4 0.008,0.22 0.20532,1.912 0.4376,3.76 0.45001,3.580213 0.3852,3.825583 -1.01288,3.835103 -0.396,0.003 -0.72116,-0.0311 -0.72256,-0.0751 z m 19.25036,1.39063 c 1.02763,-0.2125 1.06791,-0.27579 0.96893,-1.52276 -0.09,-1.13327 -0.007,-1.32672 0.64,-1.50009 1.33195,-0.35668 1.5431,-0.24317 1.54817,0.83222 0.008,1.75853 0.22821,1.87474 2.89335,1.52886 1.30996,-0.17 2.64127,-0.31354 2.95847,-0.31897 0.4937,-0.008 0.5628,-0.25175 0.48,-1.68989 l -0.0967,-1.68 -1.48093,0.0177 -1.48093,0.0177 -0.19907,-1.904598 c -0.32498,-3.109264 -0.34103,-3.060458 1.08093,-3.287837 1.25428,-0.20057 1.2799,-0.231184 1.2751,-1.523782 -0.007,-1.920237 -0.31871,-2.251491 -1.88249,-2.001434 -1.31077,0.2096 -1.31262,0.208429 -1.31751,-0.833885 -0.009,-1.929382 0.0441,-1.919657 -6.3367,-1.158332 l -5.8184,0.694211 v 0.925296 c 0,0.919728 1.13138,10.966071 1.46384,12.998481 l 0.17396,1.06345 2.0289,-0.21728 c 1.1159,-0.1195 2.5114,-0.31705 3.1011,-0.43899 z m -0.0478,-10.430627 c 0,-0.680336 0.15702,-1.121715 0.4,-1.124367 0.22,-0.0026 0.724,-0.0912 1.12,-0.197325 0.64627,-0.173194 0.72,-0.07827 0.72,0.927049 0,0.890976 -0.14723,1.159456 -0.72,1.312951 -1.32574,0.355286 -1.52,0.23792 -1.52,-0.918308 z m 21.19597,7.970887 c 2.76978,-0.31247 5.20052,-0.66983 5.40164,-0.79413 0.24533,-0.15162 0.29092,-0.72445 0.13853,-1.740658 l -0.22714,-1.514659 -2.8545,0.223303 c -1.56998,0.122816 -2.8545,0.129747 -2.8545,0.01539 0,-0.721418 -1.32666,-10.873465 -1.43511,-10.98191 -0.15007,-0.150071 -5.94382,0.494029 -6.13143,0.681641 -0.13405,0.134055 1.43533,13.896373 1.66059,14.562193 0.0785,0.23213 0.39551,0.35342 0.70437,0.26951 0.30887,-0.0839 2.82776,-0.40821 5.59755,-0.72069 z m 16.39112,-1.89581 c 6.88244,-0.799784 6.32256,-0.592114 6.07353,-2.252757 -0.21103,-1.407286 -0.20341,-1.42232 0.72188,-1.42232 1.87927,0 1.99148,-0.34895 1.49202,-4.639999 -0.24583,-2.112 -0.56547,-4.052215 -0.71031,-4.311591 -0.18163,-0.325248 -0.67621,-0.441779 -1.59378,-0.375529 l -1.33043,0.09606 v -1.154516 c 0,-0.741817 -0.17527,-1.221766 -0.4903,-1.342659 -0.57045,-0.218899 -10.86075,0.866042 -11.40512,1.202483 -0.27132,0.16769 -0.18161,1.836144 0.34502,6.416183 0.99627,8.664605 0.90583,8.269565 1.89311,8.269565 0.45731,0 2.70929,-0.21821 5.00438,-0.48492 z m 0.0293,-4.395077 c -0.16849,-0.778713 -0.81402,-6.224742 -0.8155,-6.879999 -6.4e-4,-0.240333 0.42569,-0.4 1.06781,-0.4 h 1.0687 l 0.3713,3.021305 c 0.58008,4.720294 0.54985,4.978694 -0.58262,4.978694 -0.72973,0 -0.99051,-0.169196 -1.10969,-0.72 z"
     id="path817"
     inkscape:connector-curvature="0" />
</svg>
