<?xml version="1.0" encoding="UTF-8" standalone="no"?>
<!-- Created with Inkscape (http://www.inkscape.org/) -->

<svg
   xmlns:dc="http://purl.org/dc/elements/1.1/"
   xmlns:cc="http://creativecommons.org/ns#"
   xmlns:rdf="http://www.w3.org/1999/02/22-rdf-syntax-ns#"
   xmlns:svg="http://www.w3.org/2000/svg"
   xmlns="http://www.w3.org/2000/svg"
   xmlns:sodipodi="http://sodipodi.sourceforge.net/DTD/sodipodi-0.dtd"
   xmlns:inkscape="http://www.inkscape.org/namespaces/inkscape"
   width="32"
   height="32"
   id="svg3578"
   version="1.1"
   inkscape:version="0.92.1 r15371"
   sodipodi:docname="researchgate.svg">
  <defs
     id="defs3580" />
  <sodipodi:namedview
     id="base"
     pagecolor="#ffffff"
     bordercolor="#666666"
     borderopacity="1.0"
     inkscape:pageopacity="0.0"
     inkscape:pageshadow="2"
     inkscape:zoom="7.919596"
     inkscape:cx="-17.576617"
     inkscape:cy="23.905286"
     inkscape:document-units="px"
     inkscape:current-layer="layer1"
     showgrid="false"
     inkscape:window-width="1920"
     inkscape:window-height="1051"
     inkscape:window-x="-9"
     inkscape:window-y="-9"
     inkscape:window-maximized="1"
     showguides="false" />
  <metadata
     id="metadata3583">
    <rdf:RDF>
      <cc:Work
         rdf:about="">
        <dc:format>image/svg+xml</dc:format>
        <dc:type
           rdf:resource="http://purl.org/dc/dcmitype/StillImage" />
        <dc:title />
      </cc:Work>
    </rdf:RDF>
  </metadata>
  <g
     inkscape:label="Layer 1"
     inkscape:groupmode="layer"
     id="layer1"
     transform="translate(0,-3335.559)">
    <path
       style="fill:#ccccc1;stroke:#cccccf;stroke-width:1.06666672px;stroke-linecap:butt;stroke-linejoin:miter;stroke-opacity:0.94117647;fill-opacity:1"
       d="m 0.4272698,3352.1126 v -10.1301 h 4.5421179 c 2.4981656,0 4.8077176,0.048 5.1323383,0.1045 1.615689,0.2859 2.893108,1.0864 3.56111,2.2316 1.055894,1.8104 0.82647,4.8541 -0.489224,6.4906 -0.372334,0.4632 -1.186557,0.9551 -1.996654,1.2062 l -0.611754,0.1896 0.865654,0.2167 c 1.555661,0.3898 2.256473,1.2359 2.550864,3.0796 0.06611,0.4142 0.173184,1.7606 0.237903,2.9918 0.128598,2.4467 0.219032,2.9015 0.678134,3.4106 l 0.305955,0.3393 h -2.415991 -2.415992 l -0.17173,-0.3835 c -0.2265224,-0.5059 -0.2872189,-1.1055 -0.4059069,-4.0096 -0.096843,-2.3696 -0.108639,-2.4511 -0.444575,-3.0771 -0.5231082,-0.9745 -0.8040576,-1.0844 -2.8942442,-1.1314 l -1.7094343,-0.038 v 4.32 4.3201 H 2.586555 0.4272698 v -10.1302 z m 7.6038237,-1.4456 c 1.3405408,-0.3765 1.9098016,-1.1906 1.9241184,-2.752 0.013323,-1.4528 -0.3815061,-2.2095 -1.4157216,-2.7133 -0.417857,-0.2035 -0.7510709,-0.2483 -2.1441952,-0.2877 l -1.6494545,-0.047 v 2.9789 2.979 h 1.3604775 c 0.8276042,0 1.5815029,-0.062 1.9247754,-0.1585 z"
       id="path3351"
       inkscape:connector-curvature="0" />
    <path
       style="fill:#ccccc1;stroke:#cccccf;stroke-width:1.06666672px;stroke-linecap:butt;stroke-linejoin:miter;stroke-opacity:0.94117647;fill-opacity:1"
       d="m 21.840181,3362.4234 c -0.95657,-0.2174 -1.697895,-0.6234 -2.409708,-1.3196 -1.554502,-1.5209 -2.100533,-3.8392 -2.102892,-8.929 -0.0025,-5.0292 0.614938,-7.3642 2.378298,-8.9965 0.731512,-0.6772 1.557875,-1.1017 2.698909,-1.3863 1.024832,-0.2557 3.452267,-0.2527 4.581327,0.014 2.640769,0.6042 4.032515,2.3062 4.338998,5.306 l 0.08292,0.8115 H 29.31032 27.212603 l -0.07641,-0.6821 c -0.130252,-1.1628 -0.724138,-2.12 -1.571392,-2.5326 -0.45073,-0.2196 -1.491767,-0.2137 -1.957587,0.014 -0.455428,0.2197 -0.962917,0.778 -1.244243,1.3685 -0.582541,1.223 -0.827029,3.9396 -0.683941,7.5997 0.166933,4.2699 1.026018,5.9913 2.9881,5.9875 1.089625,0 2.288795,-0.9689 2.632071,-2.1218 0.06478,-0.2177 0.11809,-1.0379 0.118458,-1.823 l 6.69e-4,-1.4272 H 25.97881 24.539284 v -1.455 -1.4552 h 3.538829 3.538829 v 5.4289 5.4288 h -1.559485 -1.559484 v -0.9514 c 0,-0.5233 -0.04359,-0.9514 -0.09685,-0.9514 -0.05328,0 -0.266172,0.224 -0.473099,0.498 -0.509606,0.6746 -1.373012,1.2458 -2.291727,1.5162 -0.883693,0.2603 -2.801785,0.2951 -3.796102,0.068 z"
       id="path3353"
       inkscape:connector-curvature="0" />
    <path
       style="fill:#ccccc1;stroke-width:1.06666672;fill-opacity:1;stroke:#cccccf;stroke-opacity:0.94117647"
       d="m 0.4272698,3352.1126 v -10.1301 l 2.9690172,0.014 c 1.6329597,0 3.9137036,0.044 5.0683223,0.087 2.0484177,0.078 2.1205347,0.09 2.9751577,0.4588 0.640365,0.2766 1.04886,0.5528 1.519323,1.0268 0.890231,0.8973 1.168717,1.6077 1.237209,3.1561 0.06316,1.4283 -0.09548,2.321 -0.582676,3.279 -0.509859,1.0028 -1.283444,1.5841 -2.809788,2.112 -0.190594,0.066 -0.07961,0.1331 0.539823,0.3272 1.016304,0.3188 1.21213,0.4253 1.663247,0.9047 0.760627,0.8083 0.913168,1.4632 1.157605,4.9698 0.142185,2.0397 0.232134,2.7234 0.406689,3.0916 0.123267,0.2602 0.284219,0.5076 0.357671,0.55 0.39867,0.2297 -0.04133,0.2876 -2.191116,0.2876 h -2.324672 l -0.130391,-0.3078 c -0.231746,-0.5472 -0.263617,-0.8241 -0.4294204,-3.7309 -0.1458773,-2.5572 -0.1918315,-2.9161 -0.4300928,-3.3579 -0.5687531,-1.0551 -0.7473259,-1.128 -2.9681163,-1.213 l -1.7096406,-0.066 2.067e-4,4.3375 2.069e-4,4.3375 H 2.5865489 0.42726362 v -10.13 z m 8.1122205,-1.5929 c 1.0494208,-0.5177 1.4286902,-1.2601 1.4165131,-2.7725 -0.00875,-1.0863 -0.1610059,-1.5115 -0.7553365,-2.1088 -0.5264768,-0.5292 -0.940751,-0.6644 -2.1749248,-0.7092 -0.6271542,-0.022 -1.3966944,-0.059 -1.7100907,-0.078 l -0.5698108,-0.037 v 3.0165 3.0166 l 1.6494545,-0.042 c 1.4096587,-0.036 1.7213782,-0.077 2.1441952,-0.2857 z"
       id="path3355"
       inkscape:connector-curvature="0" />
    <path
       style="fill:#ccccc1;stroke-width:1.06666672;fill-opacity:1;stroke:#cccccf;stroke-opacity:0.94117647"
       d="m 22.40562,3362.4623 c -1.042689,-0.1304 -2.009271,-0.5722 -2.761403,-1.2602 -1.548745,-1.4167 -2.09035,-3.2522 -2.253174,-7.6357 -0.0913,-2.458 0.08206,-5.1981 0.428378,-6.7708 0.614424,-2.7899 2.4635,-4.6312 5.062045,-5.0405 1.201298,-0.1893 3.527365,-0.084 4.502585,0.2049 2.381697,0.7042 3.558838,2.3124 3.93028,5.3701 l 0.0717,0.5903 -2.073422,-0.032 -2.073425,-0.032 -0.08566,-0.6406 c -0.12247,-0.9159 -0.518645,-1.689 -1.138914,-2.2226 l -0.536813,-0.4616 -0.943075,0.04 c -0.888671,0.038 -0.968264,0.063 -1.379677,0.4312 -0.94151,0.8436 -1.323166,2.1012 -1.494587,4.9244 -0.12561,2.0687 0.02543,5.5057 0.297628,6.7724 0.249046,1.1588 0.791517,2.2048 1.349479,2.6018 0.379675,0.2703 0.53962,0.3085 1.292607,0.3085 0.758704,0 0.919891,-0.038 1.376685,-0.3345 0.284553,-0.184 0.711795,-0.6077 0.949427,-0.9416 l 0.432055,-0.6067 0.04075,-1.7172 0.04076,-1.7169 H 25.989552 24.53926 v -1.4553 -1.4551 h 3.53883 3.538828 v 5.429 5.4287 h -1.559484 -1.559483 v -0.9514 c 0,-0.5233 -0.04049,-0.9513 -0.08996,-0.9513 -0.04948,0 -0.32825,0.2582 -0.619486,0.5737 -0.634204,0.6871 -1.414147,1.1705 -2.229571,1.3813 -0.803785,0.208 -2.228744,0.2834 -3.153332,0.1671 z"
       id="path3357"
       inkscape:connector-curvature="0" />
    <path
       style="fill:#ccccc1;fill-opacity:1;stroke:#cccccf;stroke-width:0.43498749;stroke-miterlimit:4;stroke-dasharray:none;stroke-opacity:0.94117647"
       d="m 0.48724954,3352.1062 v -10.1366 l 4.04866056,0.072 c 6.4238809,0.1125 6.9417549,0.2069 8.3251369,1.5201 1.033015,0.9806 1.225956,1.5424 1.22653,3.5711 3.58e-4,1.381 -0.03764,1.7187 -0.25494,2.2647 -0.498568,1.2529 -1.273649,1.9973 -2.615486,2.5121 -0.292808,0.1126 -0.532579,0.2354 -0.532827,0.2733 -2.51e-4,0.038 0.315424,0.1763 0.701495,0.3076 1.002196,0.3411 1.464119,0.6673 1.895878,1.3395 0.466971,0.727 0.578153,1.3111 0.824006,4.3284 0.21274,2.6111 0.318062,3.1941 0.657394,3.6388 l 0.231504,0.3032 -0.80581,0.072 c -0.443195,0.039 -1.460542,0.072 -2.260769,0.072 l -1.454959,8e-4 -0.126469,-0.3078 c -0.233337,-0.568 -0.255363,-0.7454 -0.4398482,-3.5443 -0.1010987,-1.5337 -0.2373536,-2.9741 -0.3027893,-3.2008 -0.06544,-0.2269 -0.2782123,-0.6175 -0.4728395,-0.8681 -0.4208491,-0.5422 -0.8228981,-0.6422 -3.0357195,-0.7545 l -1.4095331,-0.072 v 4.3737 4.3735 H 2.5865593 0.48725412 v -10.1366 z m 6.80774586,-1.32 c 1.9474816,-0.095 2.7443926,-1.0867 2.65136,-3.3019 -0.038069,-0.9063 -0.078155,-1.0532 -0.4065611,-1.4891 -0.6962133,-0.9238 -1.0043402,-1.0249 -3.5643616,-1.1686 l -1.289573,-0.073 v 3.0169 c 0,1.6594 0.028664,3.0438 0.063694,3.0765 0.03503,0.033 0.4398973,0.042 0.8997021,0.019 0.4598069,-0.023 1.2003914,-0.059 1.645745,-0.081 z"
       id="path3338"
       inkscape:connector-curvature="0" />
    <path
       style="fill:#ccccc1;fill-opacity:1;stroke:#cccccf;stroke-width:0.43498749;stroke-miterlimit:4;stroke-dasharray:none;stroke-opacity:0.94117647"
       d="m 21.840181,3362.3066 c -0.892466,-0.2317 -1.582659,-0.6215 -2.278947,-1.2873 -1.587992,-1.5182 -2.09472,-3.664 -2.09002,-8.8507 0.0035,-3.8937 0.260159,-5.6208 1.072873,-7.2198 0.757509,-1.4903 2.192246,-2.6301 3.820128,-3.0347 0.733282,-0.182 3.466645,-0.2078 4.407436,-0.042 2.585679,0.4576 4.098752,2.281 4.494324,5.4162 l 0.08343,0.6613 -0.82591,-0.073 c -0.45425,-0.039 -1.373007,-0.072 -2.041681,-0.075 l -1.215772,-9e-4 -0.08212,-0.6132 c -0.105706,-0.7894 -0.669089,-1.8373 -1.252134,-2.3288 -0.425514,-0.3588 -0.504323,-0.3829 -1.105279,-0.3401 -1.270112,0.091 -1.392794,0.1332 -1.893513,0.6643 -0.918859,0.974 -1.213744,2.3056 -1.298639,5.8641 -0.111043,4.6545 0.296894,6.9329 1.448292,8.0885 0.391951,0.3933 0.784028,0.5305 1.516622,0.5305 0.786592,0 1.163702,-0.1499 1.776695,-0.7061 0.964476,-0.8751 1.015508,-1.0145 1.07846,-2.9472 l 0.056,-1.7196 h -1.455581 -1.455583 v -1.4553 -1.4551 h 3.478848 3.478849 v 5.429 5.4288 h -1.499504 -1.499504 v -0.8888 c 0,-0.4889 -0.05467,-0.9205 -0.121475,-0.959 -0.06681,-0.038 -0.38786,0.202 -0.713449,0.5344 -0.702114,0.7168 -1.712988,1.2476 -2.695951,1.4156 -0.925048,0.1581 -2.503033,0.1391 -3.186906,-0.038 z"
       id="path3340"
       inkscape:connector-curvature="0" />
  </g>
</svg>
