<?xml version="1.0" encoding="UTF-8" standalone="no"?>
<!-- Created with Inkscape (http://www.inkscape.org/) -->

<svg
   xmlns:dc="http://purl.org/dc/elements/1.1/"
   xmlns:cc="http://creativecommons.org/ns#"
   xmlns:rdf="http://www.w3.org/1999/02/22-rdf-syntax-ns#"
   xmlns:svg="http://www.w3.org/2000/svg"
   xmlns="http://www.w3.org/2000/svg"
   xmlns:sodipodi="http://sodipodi.sourceforge.net/DTD/sodipodi-0.dtd"
   xmlns:inkscape="http://www.inkscape.org/namespaces/inkscape"
   width="30"
   height="30"
   id="svg3578"
   version="1.1"
   inkscape:version="0.91 r13725"
   sodipodi:docname="researchgate.svg">
  <defs
     id="defs3580" />
  <sodipodi:namedview
     id="base"
     pagecolor="#ffffff"
     bordercolor="#666666"
     borderopacity="1.0"
     inkscape:pageopacity="0.0"
     inkscape:pageshadow="2"
     inkscape:zoom="7.919596"
     inkscape:cx="4.0153936"
     inkscape:cy="23.905286"
     inkscape:document-units="px"
     inkscape:current-layer="layer1"
     showgrid="false"
     inkscape:window-width="1360"
     inkscape:window-height="705"
     inkscape:window-x="0"
     inkscape:window-y="30"
     inkscape:window-maximized="1"
     showguides="false" />
  <metadata
     id="metadata3583">
    <rdf:RDF>
      <cc:Work
         rdf:about="">
        <dc:format>image/svg+xml</dc:format>
        <dc:type
           rdf:resource="http://purl.org/dc/dcmitype/StillImage" />
        <dc:title></dc:title>
      </cc:Work>
    </rdf:RDF>
  </metadata>
  <g
     inkscape:label="Layer 1"
     inkscape:groupmode="layer"
     id="layer1"
     transform="translate(0,-3127.0866)">
    <rect
       style="fill:#4c4797;fill-opacity:1;fill-rule:evenodd;stroke:#000000;stroke-width:0;stroke-linecap:butt;stroke-linejoin:miter;stroke-miterlimit:4;stroke-dasharray:none;stroke-opacity:1"
       id="rect4417"
       width="29.999992"
       height="29.99999"
       x="2.7622548e-06"
       y="3127.0864" />
    <path
       style="fill:#a0a0a0;stroke:none;stroke-width:1px;stroke-linecap:butt;stroke-linejoin:miter;stroke-opacity:1"
       d="m 0.40056544,3142.6056 0,-9.497 4.25823556,0 c 2.3420302,0 4.5072352,0.045 4.8115672,0.098 1.5147088,0.268 2.7122888,1.0185 3.3385408,2.0921 0.9899,1.6972 0.774815,4.5507 -0.458648,6.0849 -0.349063,0.4343 -1.112397,0.8954 -1.871863,1.1308 l -0.5735191,0.1778 0.8115501,0.2031 c 1.458433,0.3655 2.115444,1.1587 2.391435,2.8872 0.06198,0.3883 0.16236,1.6505 0.223034,2.8048 0.120561,2.2938 0.205343,2.7201 0.635751,3.1974 l 0.286833,0.3181 -2.264992,0 -2.2649918,0 -0.160997,-0.3595 c -0.212365,-0.4743 -0.269268,-1.0364 -0.380538,-3.759 -0.09079,-2.2215 -0.101849,-2.2979 -0.416789,-2.8848 -0.490414,-0.9136 -0.753804,-1.0166 -2.713354,-1.0607 l -1.6025946,-0.036 0,4.05 0,4.0501 -2.0243303,0 -2.02432986,0 0,-9.4971 z m 7.12858476,-1.3553 c 1.256757,-0.353 1.790439,-1.1162 1.803861,-2.58 0.01249,-1.362 -0.357662,-2.0714 -1.327239,-2.5437 -0.391741,-0.1908 -0.704129,-0.2328 -2.010183,-0.2697 l -1.5463636,-0.044 0,2.7927 0,2.7928 1.2754476,0 c 0.775879,0 1.482659,-0.058 1.804477,-0.1486 z"
       id="path3351"
       inkscape:connector-curvature="0" />
    <path
       style="fill:#a0a0a0;stroke:none;stroke-width:1px;stroke-linecap:butt;stroke-linejoin:miter;stroke-opacity:1"
       d="m 20.47517,3152.2719 c -0.896785,-0.2038 -1.591777,-0.5844 -2.259102,-1.2371 -1.457345,-1.4258 -1.969249,-3.5992 -1.971461,-8.3709 -0.0023,-4.7149 0.576505,-6.904 2.229655,-8.4342 0.685792,-0.6349 1.460507,-1.0329 2.530227,-1.2997 0.96078,-0.2397 3.2365,-0.2369 4.294994,0.013 2.475721,0.5665 3.780483,2.1621 4.06781,4.9744 l 0.07774,0.7608 -1.966608,0 -1.96661,0 -0.07163,-0.6395 c -0.122112,-1.0901 -0.67888,-1.9875 -1.47318,-2.3743 -0.42256,-0.2059 -1.398532,-0.2003 -1.835238,0.013 -0.426964,0.206 -0.902735,0.7294 -1.166478,1.283 -0.546132,1.1466 -0.77534,3.6934 -0.641195,7.1247 0.1565,4.0031 0.961892,5.6169 2.801344,5.6133 1.021524,0 2.145745,-0.9083 2.467567,-1.9892 0.06073,-0.2041 0.110709,-0.973 0.111054,-1.709 l 6.27e-4,-1.338 -1.349552,0 -1.349555,0 0,-1.3641 0,-1.3643 3.317652,0 3.317652,0 0,5.0896 0,5.0895 -1.462017,0 -1.462016,0 0,-0.8919 c 0,-0.4906 -0.04087,-0.8919 -0.0908,-0.8919 -0.04995,0 -0.249536,0.21 -0.44353,0.4668 -0.477756,0.6325 -1.287199,1.168 -2.148494,1.4215 -0.828463,0.244 -2.626674,0.2766 -3.558846,0.064 z"
       id="path3353"
       inkscape:connector-curvature="0" />
    <path
       style="fill:#fff6d5"
       d="m 0.40056544,3142.6056 0,-9.497 2.78345366,0.013 c 1.5308997,0 3.6690971,0.041 4.7515521,0.082 1.920392,0.073 1.9880017,0.084 2.7892108,0.4301 0.600342,0.2593 0.983306,0.5182 1.424365,0.9626 0.834591,0.8412 1.095672,1.5072 1.159883,2.9589 0.05921,1.339 -0.08951,2.1759 -0.546258,3.074 -0.477993,0.9401 -1.203229,1.4851 -2.634177,1.98 -0.1786811,0.062 -0.07463,0.1248 0.506084,0.3068 0.952785,0.2988 1.136372,0.3987 1.559294,0.8481 0.713088,0.7578 0.856095,1.3718 1.085255,4.6592 0.133299,1.9122 0.217626,2.5532 0.381271,2.8984 0.115563,0.2439 0.266455,0.4759 0.335317,0.5156 0.373753,0.2154 -0.03875,0.2696 -2.054172,0.2696 l -2.1793798,0 -0.122241,-0.2885 c -0.217262,-0.513 -0.247141,-0.7726 -0.402582,-3.4977 -0.13676,-2.3974 -0.179842,-2.7339 -0.403212,-3.1481 -0.533206,-0.9891 -0.700618,-1.0575 -2.782609,-1.1372 l -1.6027881,-0.062 1.938e-4,4.0664 1.939e-4,4.0664 -2.0243302,0 -2.02432996,0 0,-9.4969 z m 7.60520676,-1.4934 c 0.983832,-0.4853 1.339397,-1.1813 1.327981,-2.5992 -0.0082,-1.0184 -0.150943,-1.417 -0.708128,-1.977 -0.493572,-0.4961 -0.881954,-0.6229 -2.038992,-0.6649 -0.587957,-0.021 -1.309401,-0.055 -1.60321,-0.073 l -0.5341976,-0.035 0,2.828 0,2.8281 1.5463636,-0.039 c 1.321555,-0.034 1.613792,-0.072 2.010183,-0.2679 z"
       id="path3355"
       inkscape:connector-curvature="0" />
    <path
       style="fill:#fff6d5"
       d="m 21.005269,3152.3084 c -0.977521,-0.1222 -1.883692,-0.5364 -2.588816,-1.1814 -1.451948,-1.3282 -1.959703,-3.049 -2.11235,-7.1585 -0.08559,-2.3044 0.07693,-4.8732 0.401604,-6.3476 0.576023,-2.6156 2.309531,-4.3418 4.745667,-4.7255 1.126217,-0.1775 3.306905,-0.079 4.221174,0.1921 2.232841,0.6602 3.33641,2.1679 3.684637,5.0345 l 0.06722,0.5534 -1.943833,-0.03 -1.943836,-0.03 -0.08031,-0.6006 c -0.114816,-0.8586 -0.48623,-1.5834 -1.067732,-2.0837 l -0.503262,-0.4327 -0.884133,0.037 c -0.833129,0.036 -0.907747,0.059 -1.293447,0.4043 -0.882666,0.7908 -1.240468,1.9698 -1.401175,4.6166 -0.11776,1.9394 0.02384,5.1616 0.279026,6.3491 0.23348,1.0864 0.742047,2.067 1.265136,2.4392 0.355946,0.2534 0.505894,0.2892 1.211819,0.2892 0.711285,0 0.862398,-0.036 1.290643,-0.3136 0.266768,-0.1725 0.667307,-0.5697 0.890087,-0.8827 l 0.405052,-0.5688 0.0382,-1.6099 0.03821,-1.6096 -1.359645,0 -1.359649,0 0,-1.3643 0,-1.3642 3.317653,0 3.317652,0 0,5.0897 0,5.0894 -1.462017,0 -1.462015,0 0,-0.8919 c 0,-0.4906 -0.03796,-0.8919 -0.08434,-0.8919 -0.04639,0 -0.307735,0.2421 -0.580768,0.5379 -0.594567,0.6441 -1.325763,1.0973 -2.090223,1.2949 -0.753549,0.195 -2.089448,0.2657 -2.956249,0.1567 z"
       id="path3357"
       inkscape:connector-curvature="0" />
    <path
       style="fill:#48a06d;fill-opacity:1;stroke:#48a06f;stroke-width:0.40780076;stroke-miterlimit:4;stroke-dasharray:none;stroke-opacity:0.94117647"
       d="m 0.45679644,3142.5996 0,-9.5031 3.79561926,0.067 c 6.0223883,0.1055 6.5078953,0.194 7.8048163,1.4251 0.968451,0.9193 1.149333,1.446 1.149871,3.3479 3.36e-4,1.2947 -0.03529,1.6113 -0.239006,2.1232 -0.467407,1.1746 -1.194046,1.8725 -2.452018,2.3551 -0.274507,0.1055 -0.499293,0.2207 -0.499525,0.2562 -2.36e-4,0.036 0.29571,0.1653 0.657651,0.2884 0.939559,0.3198 1.372612,0.6256 1.777386,1.2558 0.437785,0.6815 0.542018,1.2291 0.772506,4.0578 0.199443,2.4479 0.298183,2.9945 0.616306,3.4114 l 0.217035,0.2843 -0.755446,0.067 c -0.415496,0.037 -1.369259,0.067 -2.119471,0.068 l -1.3640248,7e-4 -0.118564,-0.2886 c -0.218754,-0.5325 -0.239403,-0.6988 -0.412358,-3.3227 -0.09478,-1.4379 -0.222519,-2.7883 -0.283865,-3.0008 -0.06135,-0.2127 -0.260824,-0.5789 -0.443287,-0.8138 -0.394546,-0.5083 -0.771467,-0.6021 -2.845987,-0.7074 l -1.3214373,-0.067 0,4.1003 0,4.1002 -1.9680986,0 -1.96809856,0 0,-9.5031 z m 6.38226176,-1.2375 c 1.825764,-0.089 2.572868,-1.0188 2.48565,-3.0956 -0.03569,-0.8496 -0.07327,-0.9873 -0.381151,-1.396 -0.6527,-0.8661 -0.941569,-0.9608 -3.341589,-1.0956 l -1.2089747,-0.068 0,2.8283 c 0,1.5557 0.026872,2.8536 0.059713,2.8842 0.032841,0.031 0.4124037,0.039 0.8434707,0.018 0.431069,-0.022 1.125367,-0.055 1.542886,-0.076 z"
       id="path3338"
       inkscape:connector-curvature="0" />
    <path
       style="fill:#48a06d;fill-opacity:1;stroke:#48a06d;stroke-width:0.40780076;stroke-miterlimit:4;stroke-dasharray:none;stroke-opacity:1"
       d="m 20.47517,3152.1624 c -0.836687,-0.2172 -1.483743,-0.5826 -2.136513,-1.2068 -1.488743,-1.4233 -1.9638,-3.435 -1.959394,-8.2975 0.0033,-3.6504 0.243899,-5.2695 1.005819,-6.7686 0.710164,-1.3972 2.05523,-2.4657 3.58137,-2.845 0.687451,-0.1707 3.249979,-0.1948 4.131971,-0.039 2.424074,0.429 3.84258,2.1384 4.213429,5.0777 l 0.07822,0.6199 -0.774291,-0.068 c -0.425859,-0.037 -1.287194,-0.068 -1.914076,-0.07 l -1.139786,-8e-4 -0.07699,-0.5749 c -0.0991,-0.7401 -0.627271,-1.7225 -1.173876,-2.1832 -0.398919,-0.3364 -0.472803,-0.359 -1.036199,-0.3189 -1.19073,0.085 -1.305744,0.1249 -1.775168,0.6228 -0.861431,0.9131 -1.137885,2.1615 -1.217474,5.4976 -0.104103,4.3636 0.278338,6.4996 1.357773,7.583 0.367454,0.3687 0.735027,0.4973 1.421833,0.4973 0.73743,0 1.090971,-0.1405 1.665652,-0.662 0.904196,-0.8204 0.952039,-0.9511 1.011056,-2.763 l 0.0525,-1.6121 -1.364607,0 -1.364609,0 0,-1.3643 0,-1.3642 3.26142,0 3.261421,0 0,5.0897 0,5.0895 -1.405785,0 -1.405785,0 0,-0.8333 c 0,-0.4583 -0.05125,-0.8629 -0.113883,-0.899 -0.06263,-0.036 -0.363619,0.1894 -0.668858,0.501 -0.658232,0.672 -1.605927,1.1696 -2.527454,1.3271 -0.867233,0.1482 -2.346594,0.1304 -2.987725,-0.036 z"
       id="path3340"
       inkscape:connector-curvature="0" />
  </g>
</svg>
